<?xml version="1.0" encoding="UTF-8" standalone="no"?><!DOCTYPE svg PUBLIC "-//W3C//DTD SVG 1.1//EN" "http://www.w3.org/Graphics/SVG/1.1/DTD/svg11.dtd"><!-- Generated by graphviz version 2.40.1 (20161225.0304)
 --><!-- Title: %0 Pages: 1 --><svg xmlns="http://www.w3.org/2000/svg" xmlns:xlink="http://www.w3.org/1999/xlink" width="286pt" height="369pt" viewBox="0.00 0.00 285.83 368.80">
<g id="graph0" class="graph" transform="scale(1 1) rotate(0) translate(4 364.8)">
<title>%0</title>
<polygon fill="#ffffff" stroke="transparent" points="-4,4 -4,-364.8 281.829,-364.8 281.829,4 -4,4"/>
<g id="clust1" class="cluster">
<title>cluster_encoder</title>
<polygon fill="none" stroke="#add8e6" points="8,-8 8,-352.8 96,-352.8 96,-8 8,-8"/>
<text text-anchor="middle" x="39.3212" y="-336.2" font-family="Times,serif" font-size="14.00" fill="#000000">Encoder</text>
</g>
<g id="clust2" class="cluster">
<title>cluster_decoder</title>
<polygon fill="none" stroke="#add8e6" points="104,-8 104,-352.8 192,-352.8 192,-8 104,-8"/>
<text text-anchor="middle" x="160.2945" y="-336.2" font-family="Times,serif" font-size="14.00" fill="#000000">Decoder</text>
</g>
<!-- 2225913641696 -->
<g id="node1" class="node">
<title>2225913641696</title>
<polygon fill="#add8e6" stroke="#000000" points="80.659,-320 23.341,-320 23.341,-288 80.659,-288 80.659,-320"/>
<text text-anchor="middle" x="52" y="-307" font-family="monospace" font-size="10.00" fill="#000000">encoder cl</text>
<text text-anchor="middle" x="52" y="-295" font-family="monospace" font-size="10.00" fill="#000000">(3, 8, 3, 3)</text>
</g>
<!-- 2225913641856 -->
<g id="node2" class="node">
<title>2225913641856</title>
<polygon fill="#add8e6" stroke="#000000" points="83.1589,-252 20.8411,-252 20.8411,-220 83.1589,-220 83.1589,-252"/>
<text text-anchor="middle" x="52" y="-239" font-family="monospace" font-size="10.00" fill="#000000">encoder cl</text>
<text text-anchor="middle" x="52" y="-227" font-family="monospace" font-size="10.00" fill="#000000">(8, 16, 3, 3)</text>
</g>
<!-- 2225913641696&#45;&gt;2225913641856 -->
<g id="edge1" class="edge">
<title>2225913641696-&gt;2225913641856</title>
<path fill="none" stroke="#000000" d="M52,-287.8849C52,-280.3737 52,-271.2345 52,-262.7315"/>
<polygon fill="#000000" stroke="#000000" points="55.5001,-262.4717 52,-252.4717 48.5001,-262.4718 55.5001,-262.4717"/>
</g>
<!-- 2225913642096 -->
<g id="node3" class="node">
<title>2225913642096</title>
<polygon fill="#add8e6" stroke="#000000" points="85.6589,-184 18.3411,-184 18.3411,-152 85.6589,-152 85.6589,-184"/>
<text text-anchor="middle" x="52" y="-171" font-family="monospace" font-size="10.00" fill="#000000">encoder cl</text>
<text text-anchor="middle" x="52" y="-159" font-family="monospace" font-size="10.00" fill="#000000">(16, 32, 3, 3)</text>
</g>
<!-- 2225913641856&#45;&gt;2225913642096 -->
<g id="edge2" class="edge">
<title>2225913641856-&gt;2225913642096</title>
<path fill="none" stroke="#000000" d="M52,-219.8849C52,-212.3737 52,-203.2345 52,-194.7315"/>
<polygon fill="#000000" stroke="#000000" points="55.5001,-194.4717 52,-184.4717 48.5001,-194.4718 55.5001,-194.4717"/>
</g>
<!-- 2225913716880 -->
<g id="node4" class="node">
<title>2225913716880</title>
<polygon fill="#add8e6" stroke="#000000" points="88.1588,-116 15.8412,-116 15.8412,-84 88.1588,-84 88.1588,-116"/>
<text text-anchor="middle" x="52" y="-103" font-family="monospace" font-size="10.00" fill="#000000">encoder fcl</text>
<text text-anchor="middle" x="52" y="-91" font-family="monospace" font-size="10.00" fill="#000000">(123008, 144)</text>
</g>
<!-- 2225913642096&#45;&gt;2225913716880 -->
<g id="edge3" class="edge">
<title>2225913642096-&gt;2225913716880</title>
<path fill="none" stroke="#000000" d="M52,-151.8849C52,-144.3737 52,-135.2345 52,-126.7315"/>
<polygon fill="#000000" stroke="#000000" points="55.5001,-126.4717 52,-116.4717 48.5001,-126.4718 55.5001,-126.4717"/>
</g>
<!-- 2225913717040 -->
<g id="node5" class="node">
<title>2225913717040</title>
<polygon fill="#add8e6" stroke="#000000" points="82.1938,-48 21.8062,-48 21.8062,-16 82.1938,-16 82.1938,-48"/>
<text text-anchor="middle" x="52" y="-35" font-family="monospace" font-size="10.00" fill="#000000">encoder fcl</text>
<text text-anchor="middle" x="52" y="-23" font-family="monospace" font-size="10.00" fill="#000000">(144, 72)</text>
</g>
<!-- 2225913716880&#45;&gt;2225913717040 -->
<g id="edge4" class="edge">
<title>2225913716880-&gt;2225913717040</title>
<path fill="none" stroke="#000000" d="M52,-83.8849C52,-76.3737 52,-67.2345 52,-58.7315"/>
<polygon fill="#000000" stroke="#000000" points="55.5001,-58.4717 52,-48.4717 48.5001,-58.4718 55.5001,-58.4717"/>
</g>
<!-- 2225913642336 -->
<g id="node6" class="node">
<title>2225913642336</title>
<polygon fill="#add8e6" stroke="#000000" points="181.6589,-320 114.3411,-320 114.3411,-288 181.6589,-288 181.6589,-320"/>
<text text-anchor="middle" x="148" y="-307" font-family="monospace" font-size="10.00" fill="#000000">decoder cl</text>
<text text-anchor="middle" x="148" y="-295" font-family="monospace" font-size="10.00" fill="#000000">(32, 16, 3, 3)</text>
</g>
<!-- 2225913642576 -->
<g id="node7" class="node">
<title>2225913642576</title>
<polygon fill="#add8e6" stroke="#000000" points="181.6589,-252 114.3411,-252 114.3411,-220 181.6589,-220 181.6589,-252"/>
<text text-anchor="middle" x="148" y="-239" font-family="monospace" font-size="10.00" fill="#000000">decoder cl</text>
<text text-anchor="middle" x="148" y="-227" font-family="monospace" font-size="10.00" fill="#000000">(16, 32, 3, 3)</text>
</g>
<!-- 2225913642336&#45;&gt;2225913642576 -->
<g id="edge5" class="edge">
<title>2225913642336-&gt;2225913642576</title>
<path fill="none" stroke="#000000" d="M148,-287.8849C148,-280.3737 148,-271.2345 148,-262.7315"/>
<polygon fill="#000000" stroke="#000000" points="151.5001,-262.4717 148,-252.4717 144.5001,-262.4718 151.5001,-262.4717"/>
</g>
<!-- 2225913642816 -->
<g id="node8" class="node">
<title>2225913642816</title>
<polygon fill="#add8e6" stroke="#000000" points="176.659,-184 119.341,-184 119.341,-152 176.659,-152 176.659,-184"/>
<text text-anchor="middle" x="148" y="-171" font-family="monospace" font-size="10.00" fill="#000000">decoder cl</text>
<text text-anchor="middle" x="148" y="-159" font-family="monospace" font-size="10.00" fill="#000000">(8, 3, 3, 3)</text>
</g>
<!-- 2225913642576&#45;&gt;2225913642816 -->
<g id="edge6" class="edge">
<title>2225913642576-&gt;2225913642816</title>
<path fill="none" stroke="#000000" d="M148,-219.8849C148,-212.3737 148,-203.2345 148,-194.7315"/>
<polygon fill="#000000" stroke="#000000" points="151.5001,-194.4717 148,-184.4717 144.5001,-194.4718 151.5001,-194.4717"/>
</g>
<!-- 2225913717200 -->
<g id="node9" class="node">
<title>2225913717200</title>
<polygon fill="#add8e6" stroke="#000000" points="178.1938,-116 117.8062,-116 117.8062,-84 178.1938,-84 178.1938,-116"/>
<text text-anchor="middle" x="148" y="-103" font-family="monospace" font-size="10.00" fill="#000000">decoder fcl</text>
<text text-anchor="middle" x="148" y="-91" font-family="monospace" font-size="10.00" fill="#000000">(72, 144)</text>
</g>
<!-- 2225913642816&#45;&gt;2225913717200 -->
<g id="edge7" class="edge">
<title>2225913642816-&gt;2225913717200</title>
<path fill="none" stroke="#000000" d="M148,-151.8849C148,-144.3737 148,-135.2345 148,-126.7315"/>
<polygon fill="#000000" stroke="#000000" points="151.5001,-126.4717 148,-116.4717 144.5001,-126.4718 151.5001,-126.4717"/>
</g>
<!-- 2225913717360 -->
<g id="node10" class="node">
<title>2225913717360</title>
<polygon fill="#add8e6" stroke="#000000" points="184.1588,-48 111.8412,-48 111.8412,-16 184.1588,-16 184.1588,-48"/>
<text text-anchor="middle" x="148" y="-35" font-family="monospace" font-size="10.00" fill="#000000">decoder fcl</text>
<text text-anchor="middle" x="148" y="-23" font-family="monospace" font-size="10.00" fill="#000000">(144, 123008)</text>
</g>
<!-- 2225913717200&#45;&gt;2225913717360 -->
<g id="edge8" class="edge">
<title>2225913717200-&gt;2225913717360</title>
<path fill="none" stroke="#000000" d="M148,-83.8849C148,-76.3737 148,-67.2345 148,-58.7315"/>
<polygon fill="#000000" stroke="#000000" points="151.5001,-58.4717 148,-48.4717 144.5001,-58.4718 151.5001,-58.4717"/>
</g>
<!-- 2225913718480 -->
<g id="node11" class="node">
<title>2225913718480</title>
<polygon fill="#caff70" stroke="#000000" points="277.6587,-110 200.3413,-110 200.3413,-90 277.6587,-90 277.6587,-110"/>
<text text-anchor="middle" x="239" y="-97" font-family="monospace" font-size="10.00" fill="#000000">(1, 3, 500, 500)</text>
</g>
<!-- 2225913718481 -->
<g id="node12" class="node">
<title>2225913718481</title>
<polygon fill="#caff70" stroke="#000000" points="272.6589,-314 205.3411,-314 205.3411,-294 272.6589,-294 272.6589,-314"/>
<text text-anchor="middle" x="239" y="-301" font-family="monospace" font-size="10.00" fill="#000000">(3, 500, 500)</text>
</g>
<!-- encoder -->
<g id="node13" class="node">
<title>encoder</title>
<polygon fill="#d3d3d3" stroke="#000000" points="266,-246 212,-246 212,-226 266,-226 266,-246"/>
<text text-anchor="middle" x="239" y="-233" font-family="monospace" font-size="10.00" fill="#000000">encoder</text>
</g>
<!-- 2225913718481&#45;&gt;encoder -->
<g id="edge9" class="edge">
<title>2225913718481-&gt;encoder</title>
<path fill="none" stroke="#000000" d="M239,-293.9664C239,-284.1231 239,-268.827 239,-256.4189"/>
<polygon fill="#000000" stroke="#000000" points="242.5001,-256.0748 239,-246.0748 235.5001,-256.0748 242.5001,-256.0748"/>
</g>
<!-- decoder -->
<g id="node14" class="node">
<title>decoder</title>
<polygon fill="#d3d3d3" stroke="#000000" points="266,-178 212,-178 212,-158 266,-158 266,-178"/>
<text text-anchor="middle" x="239" y="-165" font-family="monospace" font-size="10.00" fill="#000000">decoder</text>
</g>
<!-- encoder&#45;&gt;decoder -->
<g id="edge10" class="edge">
<title>encoder-&gt;decoder</title>
<path fill="none" stroke="#000000" d="M239,-225.9664C239,-216.1231 239,-200.827 239,-188.4189"/>
<polygon fill="#000000" stroke="#000000" points="242.5001,-188.0748 239,-178.0748 235.5001,-188.0748 242.5001,-188.0748"/>
</g>
<!-- decoder&#45;&gt;2225913718480 -->
<g id="edge11" class="edge">
<title>decoder-&gt;2225913718480</title>
<path fill="none" stroke="#000000" d="M239,-157.9664C239,-148.1231 239,-132.827 239,-120.4189"/>
<polygon fill="#000000" stroke="#000000" points="242.5001,-120.0748 239,-110.0748 235.5001,-120.0748 242.5001,-120.0748"/>
</g>
</g>
</svg>